<svg width="17" height="18" viewBox="0 0 17 18" fill="none" xmlns="http://www.w3.org/2000/svg">
<path d="M15.7717 12.2806L14.7579 10.5884C14.3949 9.98344 14.2042 9.29128 14.2042 8.58636V6.17832C14.2042 2.77199 11.4304 0 8.02132 0C4.61224 0 1.83839 2.77107 1.83839 6.17832V8.58636C1.83839 9.29128 1.64681 9.98344 1.28472 10.5884L0.270901 12.2806C-0.082016 12.8681 -0.0902669 13.5758 0.247066 14.1716C0.585316 14.7693 1.19672 15.1259 1.88331 15.1259H5.53165C5.52432 15.2029 5.50139 15.2771 5.50139 15.3551C5.50139 16.7456 6.63164 17.8759 8.02223 17.8759C9.41281 17.8759 10.5431 16.7456 10.5431 15.3551C10.5431 15.2771 10.5201 15.2029 10.5128 15.1259H14.1611C14.8477 15.1259 15.4601 14.7693 15.7974 14.1725C16.1338 13.5758 16.1246 12.8681 15.7717 12.2806ZM9.16623 15.3551C9.16623 15.9866 8.65198 16.5009 8.0204 16.5009C7.38881 16.5009 6.87456 15.9866 6.87456 15.3551C6.87456 15.2771 6.88923 15.2011 6.90482 15.1259H9.13597C9.15156 15.2011 9.16623 15.2771 9.16623 15.3551ZM14.5993 13.4942C14.5553 13.5712 14.4261 13.75 14.1593 13.75H1.88147C1.61564 13.75 1.48548 13.5712 1.44148 13.4942C1.39839 13.4172 1.31131 13.2146 1.4479 12.9873L2.46173 11.2952C2.95307 10.4766 3.21156 9.5397 3.21156 8.58636V6.17832C3.21156 3.53007 5.36847 1.375 8.01947 1.375C10.6705 1.375 12.8274 3.53007 12.8274 6.17832V8.58636C12.8274 9.5397 13.0868 10.4766 13.5772 11.2952L14.5911 12.9873C14.7286 13.2146 14.6424 13.4172 14.5993 13.4942Z" fill="#111827"/>
</svg>
