<svg width="24" height="24" viewBox="0 0 24 24" fill="none" xmlns="http://www.w3.org/2000/svg">
<path d="M17.5416 11.4126V22.8755H3.0036V11.3193C3.99401 11.3572 4.00148 12.4753 5.11265 12.2866C5.79119 12.1715 5.9574 11.163 6.92975 11.3305C7.72469 11.4674 7.76516 12.469 8.84022 12.2866C9.51938 12.1715 9.6831 11.1636 10.6573 11.3305C11.4404 11.4643 11.4971 12.4684 12.5678 12.2866C13.2376 12.1727 13.3988 11.1973 14.3457 11.3236C15.1537 11.4313 15.2159 12.4703 16.2954 12.2866C16.827 12.1964 17.0299 11.5477 17.541 11.4126H17.5416Z" fill="#16A34A"/>
<path d="M21.6422 11.3198V22.876H18.2875V11.4132C18.7986 11.5483 19.0021 12.1969 19.5331 12.2872C20.6524 12.4771 20.6443 11.3522 21.6422 11.3198Z" fill="#16A34A"/>
<path d="M17.8678 7.68435C20.0098 6.82778 20.8807 9.43545 20.4045 11.0838C20.168 11.2121 20.1001 11.5426 19.8007 11.5557C19.5013 11.5688 19.388 11.2631 19.1975 11.0851C18.4561 10.3935 17.3785 10.4115 16.6321 11.0851C16.4647 11.2364 16.3178 11.5408 16.0744 11.5563C15.7687 11.5756 15.656 11.2588 15.4699 11.0851C14.9968 10.6437 14.2983 10.4676 13.6746 10.6437C13.4032 10.7203 13.2239 10.8871 12.9761 10.993C12.9556 10.0623 13.1592 9.11673 13.6204 8.30561C14.3948 6.94294 15.9667 6.01541 17.1693 7.49822C17.3418 6.42253 18.2936 5.57157 19.4253 5.73156C19.744 5.77638 19.9607 6.07891 19.7328 6.35717C19.5666 6.56011 19.2547 6.44992 19.0107 6.47358C18.3509 6.53832 18.0104 7.09235 17.8684 7.68435H17.8678Z" fill="#16A34A"/>
<path d="M12.6955 4.60986V5.70485C12.9084 5.77955 14.0805 6.417 14.0432 6.63052C14.0332 6.68779 13.3821 7.32087 13.2626 7.48334C12.434 8.60759 12.0686 10.1782 12.3226 11.5527C12.0269 11.5396 11.9092 11.2377 11.7175 11.0634C11.0253 10.4321 9.96141 10.4085 9.24677 11.0167C9.03388 11.1978 8.88572 11.5769 8.57136 11.557C8.43814 11.5483 8.20843 11.4008 8.21964 11.2526C8.30866 9.91859 7.95943 8.45258 8.63361 7.23496C9.04259 6.49605 9.69062 6.02419 10.4588 5.70547V4.61049H12.6955V4.60986Z" fill="#16A34A"/>
<path d="M13.0684 2.74609H10.086V3.86411H13.0684V2.74609Z" fill="#16A34A"/>
<path d="M7.68491 6.28875C7.22799 5.17883 5.73273 2.13229 4.41924 2.0053C4.05757 1.97044 3.85214 2.10926 3.63177 2.37258C2.49943 3.73026 3.16178 8.10585 3.5303 9.79097C3.56267 9.94037 3.71207 10.6886 3.76063 10.749C3.78242 10.7758 4.22627 11.041 4.33085 11.1337C4.43792 11.229 4.51324 11.4226 4.66326 11.5004C5.07536 11.7145 5.198 11.3229 5.42459 11.1088C5.98485 10.5797 6.75426 10.4377 7.47637 10.7141V8.45445C7.47637 8.34426 7.56913 7.96827 7.60274 7.83568C7.65192 7.64395 7.93516 7.05132 7.93703 6.9648C7.9389 6.86582 7.73783 6.42073 7.68429 6.28938L7.68491 6.28875ZM5.04797 7.19014C4.81516 7.64021 4.31466 7.49579 4.31653 7.02206L5.28826 4.26126C5.32437 4.23013 5.36732 4.21146 5.41339 4.20025C5.73398 4.12368 5.94999 4.27744 5.92073 4.60986C5.5659 5.3743 5.42397 6.46306 5.0486 7.18952L5.04797 7.19014ZM6.76609 7.55742C6.64408 8.3175 6.072 9.27304 5.91575 10.0618C5.81552 10.3126 5.5105 10.4247 5.30071 10.2329C5.19613 10.1371 5.165 9.95095 5.2036 9.81586C5.57026 9.07695 5.69601 8.0243 6.05457 7.31153C6.29299 6.8378 6.8576 6.98472 6.76547 7.55742H6.76609Z" fill="#16A34A"/>
</svg>
