<svg width="24" height="24" viewBox="0 0 24 24" fill="none" xmlns="http://www.w3.org/2000/svg">
<path d="M19.8399 10.9066C20.3396 9.22835 19.4704 6.68725 17.3294 7.21987C17.4341 6.84455 17.8013 6.57563 18.1784 6.5311C18.3484 6.51086 18.5364 6.54903 18.6954 6.52821C19.0707 6.47905 19.0736 5.9204 18.6399 5.84233C17.7921 5.68966 16.8442 6.24541 16.6366 7.08975C15.9779 6.36686 14.9884 6.23154 14.1476 6.73062C13.7451 6.23674 13.2789 5.84869 12.696 5.58614C12.6844 5.53756 12.6839 4.8592 12.6948 4.81756C12.7081 4.76898 13.0054 4.80657 13.0447 4.46652C13.0806 4.15655 13.0806 3.34286 13.0447 3.03346C13.0216 2.83279 12.9192 2.73101 12.7203 2.70845C11.8395 2.60667 10.7662 2.78421 9.86458 2.71192C9.71422 2.73563 9.60665 2.84436 9.58294 2.99414C9.55229 3.18961 9.55229 4.42431 9.59971 4.57698C9.66332 4.7817 9.91836 4.77766 9.92935 4.81814C9.94092 4.86035 9.93976 5.53814 9.92819 5.58672C9.44357 5.80879 9.0266 6.10546 8.6721 6.50623C8.56973 6.6219 8.47084 6.82315 8.38757 6.9151C8.35171 6.95443 8.34419 6.97351 8.28173 6.96079C7.95788 6.02739 7.5201 5.06566 7.01754 4.21496C6.48087 3.30585 5.00733 1.20252 3.79981 2.31867C2.70448 3.33072 3.00289 6.55076 3.17928 7.93062C3.29899 8.86864 3.5147 9.7951 3.73735 10.7117C3.73272 10.795 3.06304 10.4729 3 11.0148L3.02024 21.9264C3.05552 22.0166 3.12492 22.086 3.21513 22.1218H20.7947C20.8843 22.0866 20.9543 22.0172 20.9896 21.9264L21 10.9384C20.7791 10.4295 20.2025 10.8129 19.8405 10.9072L19.8399 10.9066ZM10.2729 3.40358H12.3507V4.09756H10.2729V3.40358ZM8.5414 8.41293C8.5414 7.61023 9.32675 6.68031 9.99933 6.31713C10.1387 6.24195 10.6193 6.12686 10.6193 5.94064V4.79096H12.0043V5.94064C12.0043 6.12917 12.4635 6.23038 12.5965 6.30151C12.9742 6.5045 13.3229 6.80349 13.5565 7.16262C12.8146 8.01621 12.2958 9.12426 12.2623 10.2757C12.2559 10.4902 12.3999 11.4155 12.3745 11.4693C12.3513 11.5191 12.2455 11.578 12.19 11.5908C11.5492 11.7359 11.4347 11.1524 10.9952 10.8979C10.5528 10.6418 10.0867 10.6186 9.62805 10.8459C9.18969 11.0633 9.05957 11.6122 8.54082 11.6V8.41236L8.5414 8.41293ZM4.1173 3.02652C4.39258 2.60378 4.65745 2.64599 5.04954 2.89004C5.9494 3.44985 6.97186 5.53987 7.39287 6.52763C7.50737 6.79713 7.91393 7.71607 7.93475 7.93987C7.9492 8.0937 7.85436 8.36551 7.84684 8.54132C7.80925 9.41284 7.87865 10.2948 7.848 11.1674C7.36626 10.6568 6.66882 10.5342 6.05928 10.9141C5.61802 11.1894 5.32887 11.9886 4.6534 11.441C4.39894 10.5544 4.16588 9.65689 4.00973 8.74604C3.78072 7.40956 3.38342 4.15366 4.1173 3.02595V3.02652ZM16.8529 21.447H3.69282V11.5144C3.88829 11.6093 3.98487 11.8094 4.14853 11.947C4.61928 12.3437 5.24096 12.4235 5.78516 12.1141C6.28424 11.8302 6.57398 10.9384 7.30728 11.6018C7.8 12.0476 7.88039 12.3599 8.69465 12.2969C9.49099 12.235 9.52973 11.6498 10.0022 11.4381C10.5823 11.1778 10.7812 11.7151 11.1184 11.9904C11.5926 12.3778 12.2501 12.4097 12.7631 12.0794C13.18 11.8105 13.3495 11.1998 13.97 11.4323C14.2424 11.5347 14.3396 11.7735 14.5362 11.9493C15.0445 12.4033 15.827 12.4322 16.3538 11.9904C16.5337 11.84 16.6222 11.6 16.8529 11.5144V21.447ZM16.2457 11.0581C16.0288 11.2559 15.9299 11.5624 15.5766 11.6023C14.9983 11.6677 14.8919 11.1998 14.5119 10.9321C14.0718 10.6215 13.4449 10.6076 13.0002 10.9078C12.8371 9.74942 13.3171 8.27298 14.2349 7.5258C14.8988 6.98566 15.668 6.95154 16.196 7.68368C16.3527 7.90113 16.3868 8.25158 16.669 8.29785C16.8697 8.33081 16.9969 8.14749 17.1542 8.06537C18.7018 7.25226 19.3495 8.91317 19.2766 10.1918C19.2651 10.3896 19.0493 11.5173 18.9244 11.5948C18.6665 11.755 18.3091 11.2068 18.1732 11.0819C17.6307 10.5839 16.7962 10.5579 16.2463 11.0587L16.2457 11.0581ZM20.3159 21.447H17.5452V11.5144C17.8141 11.6885 17.9349 11.9447 18.2247 12.113C18.7319 12.4079 19.3611 12.3628 19.8168 11.9904C20.0059 11.836 20.0897 11.6052 20.3159 11.5144V21.447Z" fill="#717D85" stroke="#717D85" stroke-width="0.2"/>
<path d="M4.65918 7.33677C4.61581 7.28935 4.59499 7.20376 4.56665 7.14419C4.77426 6.264 5.14554 5.41272 5.41504 4.54352C5.5787 4.26303 6.09802 4.37407 6.06506 4.75981C5.74988 5.49253 5.60183 6.42246 5.27277 7.1332C5.15537 7.3865 4.89629 7.59585 4.65976 7.33735L4.65918 7.33677Z" fill="#717D85"/>
<path d="M6.408 7.40194C6.73648 7.30305 6.88973 7.58584 6.84231 7.88194C6.72896 8.595 6.18997 9.50411 6.03903 10.2432C5.82043 10.6399 5.31499 10.4404 5.39132 9.98468C5.44626 9.65562 6.02515 7.96984 6.1813 7.6535C6.22005 7.57485 6.3253 7.42681 6.40742 7.40194H6.408Z" fill="#717D85"/>
</svg>
