<svg width="30" height="30" viewBox="0 0 30 30" fill="none" xmlns="http://www.w3.org/2000/svg">
<path d="M2.5 3.39601C2.70072 2.90154 2.97121 2.61985 3.52082 2.56041C4.29181 2.47685 5.90272 2.48546 6.68405 2.55266C7.15785 2.59314 7.49468 2.78439 7.69798 3.22114C8.11233 4.11015 8.30788 5.60734 8.77565 6.40073C8.91951 6.64538 9.13057 6.77202 9.41054 6.80561L26.5801 6.81078C27.1047 6.87625 27.4536 7.31386 27.5001 7.82556C26.5947 10.8734 25.5618 13.9031 24.4893 16.8949C24.3076 17.1748 23.9888 17.3256 23.6623 17.3549H12.1792C11.9992 17.3842 11.7795 17.553 11.696 17.7141C11.5883 17.9191 11.3721 18.8391 11.4194 19.0502C11.4815 19.3267 11.7666 19.4654 12.0285 19.4809L24.9338 19.4938C26.052 19.8091 25.9615 21.4131 24.7994 21.563L11.6382 21.5553C10.4917 21.3838 9.55871 20.4836 9.3442 19.3457C9.1297 18.2077 9.88433 17.1714 9.71377 16.0067L6.08362 5.08358C5.98283 4.8777 5.77006 4.71919 5.54005 4.68646C4.51665 4.54173 2.8954 5.15594 2.5 3.84138V3.39601Z" fill="#FFFFFD"/>
<path d="M11.2602 26.8558H10.864C10.7778 26.8394 10.6951 26.8231 10.6167 26.8067C8.45019 26.6103 8.17625 23.242 10.3971 22.7019C12.8574 22.1041 14.0996 25.4025 11.9373 26.618L11.2602 26.8566V26.8558Z" fill="#FFFFFD"/>
<path d="M23.9311 26.8558H23.5349C23.4487 26.8394 23.366 26.8231 23.2876 26.8067C21.1211 26.6103 20.8471 23.242 23.068 22.7019C25.5274 22.1041 26.7713 25.4017 24.6082 26.618L23.9311 26.8567V26.8558Z" fill="#FFFFFD"/>
<path d="M10.8647 26.8558H10.6174V26.8067C10.6958 26.8136 10.8225 26.7731 10.8647 26.8558Z" fill="#FFFFFD"/>
<path d="M23.5348 26.8558H23.2876V26.8067C23.366 26.8136 23.4926 26.7731 23.5348 26.8558Z" fill="#FFFFFD"/>
</svg>
