<svg width="10" height="13" viewBox="0 0 10 13" fill="none" xmlns="http://www.w3.org/2000/svg">
<g clip-path="url(#clip0_96_1458)">
<path d="M1.00659 3.54671C1.31391 3.51795 1.57467 3.76537 1.61457 4.08026L1.62122 10.8487C1.62122 11.3859 2.01219 11.8111 2.59602 11.8111L7.36501 11.81C7.96004 11.81 8.32266 11.3705 8.32266 10.7742L8.32406 4.05556C8.48647 3.32731 9.38706 3.39922 9.44936 4.16286L9.44831 10.7731C9.44831 12.0132 8.68038 12.9995 7.31286 12.9995C5.75528 12.9995 4.15745 13.001 2.62227 13.001C1.40491 13.001 0.486816 12.0028 0.486816 10.7196C0.486816 8.57363 0.488216 6.29819 0.488216 4.13668C0.501867 3.84575 0.725878 3.574 1.00659 3.54745V3.54671Z" fill="#FF3A3A"/>
<path d="M7.19534 1.77102H9.48795C9.57406 1.77102 9.77812 1.88164 9.84147 1.95096C10.1869 2.32928 9.93107 2.95907 9.4365 2.96128L0.424598 2.9576C-0.145931 2.9576 -0.138581 1.77139 0.427048 1.77139L2.74101 1.77065V0.457596C2.74101 0.405236 2.76971 0.00442478 3.25484 0.00442478C4.4666 0.00442478 5.5093 0 6.60661 0C7.17994 0 7.19499 0.403761 7.19499 0.457596V1.77102H7.19534ZM6.09488 1.19027H3.84182V1.77102H6.09488V1.19027Z" fill="#FF3A3A"/>
<path d="M3.75675 4.73757C4.14352 4.68042 4.41898 4.9636 4.41898 5.35151C4.41898 6.69258 4.41758 8.13064 4.41758 9.4448C4.41758 10.2873 3.29053 10.2556 3.29053 9.47392C3.29053 8.13027 3.29193 6.68447 3.29193 5.26965C3.31153 5.00932 3.50964 4.7737 3.75675 4.73757Z" fill="#FF3A3A"/>
<path d="M5.98321 4.73672C6.32972 4.67588 6.61919 4.93252 6.64614 5.29572L6.64264 9.52581C6.64264 10.1899 5.51733 10.201 5.51733 9.41851C5.51733 8.08812 5.51873 6.68178 5.51873 5.32522C5.52993 5.04941 5.71684 4.78355 5.98286 4.73672H5.98321Z" fill="#FF3A3A"/>
</g>
<defs>
<clipPath id="clip0_96_1458">
<rect width="10" height="13" fill="white"/>
</clipPath>
</defs>
</svg>
