<svg width="10" height="10" viewBox="0 0 10 10" fill="none" xmlns="http://www.w3.org/2000/svg">
<path d="M4.68068 0.0101589C8.59821 -0.235401 11.2776 3.96637 9.37129 7.42441C7.60266 10.6334 3.05898 10.8981 0.930876 7.9104C-1.34288 4.71811 0.794828 0.253475 4.68068 0.0101589ZM4.89579 1.93296C4.42363 1.99516 4.23732 2.44236 4.30166 2.87609L4.60001 6.37613C4.63778 6.59412 5.03088 6.56366 5.20246 6.54347C5.32154 6.52936 5.38684 6.45467 5.40381 6.33638C5.44959 5.1884 5.64389 4.01926 5.69383 2.87609C5.70376 2.6456 5.71816 2.45807 5.59364 2.25546C5.44799 2.01824 5.17301 1.89642 4.89579 1.93296ZM4.89547 7.31797C4.18578 7.43082 4.32055 8.55924 5.07986 8.46403C5.81676 8.37138 5.67943 7.19359 4.89547 7.31797Z" fill="#D97706"/>
</svg>
