<svg width="15" height="12" viewBox="0 0 15 12" fill="none" xmlns="http://www.w3.org/2000/svg">
<path d="M7.5 2.22454C10.0841 2.22454 12.3886 3.55927 13.5136 5.67102C13.1114 6.43551 12.5455 7.09347 11.8705 7.62611L12.8318 8.50966C13.7795 7.7389 14.5295 6.77389 15 5.67102C13.8205 2.9201 10.9091 0.971279 7.5 0.971279C6.63409 0.971279 5.80227 1.09661 5.01818 1.32846L6.14318 2.3624C6.58636 2.28094 7.03636 2.22454 7.5 2.22454ZM6.77045 2.9389L8.18182 4.23603C8.57045 4.39269 8.88409 4.68094 9.05455 5.03812L10.4659 6.33525C10.5205 6.12219 10.5614 5.89661 10.5614 5.66475C10.5682 4.1107 9.19091 2.85118 7.5 2.85118C7.24773 2.85118 7.00909 2.88251 6.77045 2.9389ZM0.688636 0.889817L2.51591 2.56919C1.40455 3.37128 0.525 4.43655 0 5.67102C1.17955 8.42193 4.09091 10.3708 7.5 10.3708C8.53636 10.3708 9.53182 10.189 10.4455 9.85692L12.7773 12L13.7386 11.1164L1.65 0L0.688636 0.889817ZM5.80227 5.58956L7.58182 7.22507C7.55455 7.23133 7.52727 7.2376 7.5 7.2376C6.55909 7.2376 5.79545 6.53577 5.79545 5.67102C5.79545 5.63969 5.80227 5.62089 5.80227 5.58956ZM3.48409 3.45901L4.67727 4.55561C4.52045 4.90026 4.43182 5.27624 4.43182 5.67102C4.43182 7.22507 5.80909 8.49086 7.5 8.49086C7.92955 8.49086 8.33864 8.4094 8.70682 8.26527L9.375 8.87937C8.775 9.02977 8.14773 9.11749 7.5 9.11749C4.91591 9.11749 2.61136 7.78277 1.48636 5.67102C1.96364 4.77493 2.65909 4.03551 3.48409 3.45901Z" fill="#484848"/>
</svg>
