<svg width="12" height="12" viewBox="0 0 12 12" fill="none" xmlns="http://www.w3.org/2000/svg">
<g clip-path="url(#clip0_101_2176)">
<path d="M8.69571 12H1.31252C1.2273 11.9646 1.13321 11.96 1.04208 11.9304C0.478009 11.7465 0.0991457 11.2677 0 10.6876V3.30481C0.142179 2.54211 0.711317 2.0401 1.48718 1.99159C2.78536 1.91059 4.16665 2.05487 5.47368 1.99159C6.10104 2.01015 6.19935 2.85006 5.58422 2.99433L1.4412 2.99982C1.24038 3.0226 1.09102 3.17109 1.01888 3.3508V10.6412C1.0539 10.8091 1.26274 10.9922 1.44035 10.9926H8.54425C8.78895 10.9745 8.98049 10.7775 8.9999 10.5345L9.00285 6.43622C9.11676 5.81357 9.96815 5.88064 10.0078 6.50414C9.95001 7.81272 10.0859 9.18838 10.0095 10.489C9.96604 11.2289 9.46525 11.9072 8.69571 11.9996V12Z" fill="#111827"/>
<path d="M8.64044 1.59583L10.3964 3.3752L6.44405 7.32289C5.84327 7.52285 5.1965 7.58401 4.57926 7.73166C4.37549 7.76668 4.23373 7.62536 4.26875 7.42118C4.41683 6.80401 4.47801 6.15731 4.67757 5.55659L8.64044 1.59583Z" fill="#111827"/>
<path d="M10.6129 0.00753727C11.4731 -0.0840046 12.1511 0.686297 11.9705 1.52916C11.8532 2.07672 11.3077 2.41758 10.9542 2.81117L9.18938 1.06385C9.18389 1.03559 9.20878 1.02547 9.22186 1.00775C9.35603 0.833102 9.86694 0.336582 10.0475 0.215932C10.2116 0.105829 10.4146 0.0286299 10.6124 0.00753727H10.6129Z" fill="#111827"/>
</g>
<defs>
<clipPath id="clip0_101_2176">
<rect width="12" height="12" fill="white"/>
</clipPath>
</defs>
</svg>
