<svg width="12" height="8" viewBox="0 0 12 8" fill="none" xmlns="http://www.w3.org/2000/svg">
<g clip-path="url(#clip0_101_2181)">
<path d="M12 3.87869V4.1214C11.8769 4.44877 11.6261 4.71203 11.4029 4.97087C10.19 6.37469 8.36237 7.77488 6.50169 7.97525C4.37419 8.20385 2.33277 6.83429 0.914957 5.32283C0.71436 5.10915 0.117242 4.46127 0.0373929 4.21775C-0.0124643 4.06536 -0.0124643 3.93473 0.0373929 3.78274C0.117242 3.53923 0.71436 2.89174 0.914957 2.67766C2.33277 1.1658 4.37419 -0.203755 6.50169 0.0248394C8.36237 0.224809 10.1896 1.6254 11.4029 3.02922C11.6265 3.28765 11.8773 3.55092 12 3.87869ZM5.69151 1.12064C3.74046 1.30448 2.6249 3.57551 3.52817 5.35871C4.55609 7.38784 7.42638 7.39751 8.46559 5.37443C9.53324 3.29572 7.93781 0.90898 5.69151 1.12064Z" fill="#111827"/>
<path d="M5.73785 2.0178C7.31302 1.83395 8.46208 3.51031 7.69202 4.96251C6.95974 6.34416 5.02154 6.33529 4.30134 4.94679C3.67618 3.74213 4.41547 2.17221 5.73785 2.0182V2.0178ZM5.86015 2.73865C5.26654 2.76365 4.79563 3.23293 4.78199 3.85461H5.41456C5.42118 3.65585 5.52985 3.51233 5.7024 3.43694C5.75771 3.41275 5.82276 3.43129 5.85977 3.3817V2.73906L5.86015 2.73865Z" fill="#111827"/>
</g>
<defs>
<clipPath id="clip0_101_2181">
<rect width="12" height="8" fill="white"/>
</clipPath>
</defs>
</svg>
