<svg width="12" height="12" viewBox="0 0 12 12" fill="none" xmlns="http://www.w3.org/2000/svg">
<g clip-path="url(#clip0_39_468)">
<path d="M0.500675 2.37536H1.86854C2.13851 3.36869 3.16261 3.95508 4.15593 3.68511C4.7939 3.51171 5.29228 3.01334 5.46567 2.37536H11.4996C11.7757 2.37536 11.9995 2.15154 11.9995 1.87542C11.9995 1.59931 11.7757 1.37548 11.4996 1.37548H5.46567C5.1957 0.382133 4.17161 -0.204261 3.17828 0.0657118C2.54031 0.239109 2.04194 0.737481 1.86854 1.37546H0.500675C0.224562 1.37546 0.000732422 1.59929 0.000732422 1.8754C0.000732422 2.15151 0.224562 2.37536 0.500675 2.37536Z" fill="#111827"/>
<path d="M11.4994 5.50009H10.1316C9.86215 4.50691 8.83862 3.92019 7.84544 4.1896C7.20695 4.36281 6.70815 4.86158 6.53494 5.50009H0.500553C0.22444 5.50009 0.000610352 5.72392 0.000610352 6.00004C0.000610352 6.27615 0.22444 6.49998 0.500553 6.49998H6.53494C6.80438 7.49316 7.82791 8.07988 8.82109 7.81047C9.45958 7.63726 9.95838 7.13849 10.1316 6.49998H11.4994C11.7756 6.49998 11.9994 6.27615 11.9994 6.00004C11.9994 5.72392 11.7756 5.50009 11.4994 5.50009Z" fill="#111827"/>
<path d="M11.4994 9.6246H5.46555C5.19558 8.63128 4.17148 8.04488 3.17816 8.31486C2.54019 8.48825 2.04181 8.98663 1.86842 9.6246H0.500553C0.22444 9.6246 0.000610352 9.84843 0.000610352 10.1245C0.000610352 10.4007 0.22444 10.6245 0.500553 10.6245H1.86842C2.13839 11.6178 3.16248 12.2042 4.15581 11.9342C4.79378 11.7608 5.29215 11.2625 5.46555 10.6245H11.4994C11.7756 10.6245 11.9994 10.4007 11.9994 10.1245C11.9994 9.84843 11.7756 9.6246 11.4994 9.6246Z" fill="#111827"/>
</g>
<defs>
<clipPath id="clip0_39_468">
<rect width="12" height="12" fill="white"/>
</clipPath>
</defs>
</svg>
