<svg width="24" height="24" viewBox="0 0 24 24" fill="none" xmlns="http://www.w3.org/2000/svg">
<path d="M2.00039 11.7023C2.03792 11.4701 2.0778 11.2435 2.19078 11.0316C5.05595 8.03689 7.99187 5.10975 10.9771 2.2342C11.366 1.85941 12.8786 1.94422 13.25 2.41866L21.6015 10.7811C21.8728 11.0664 21.9506 11.3572 21.9846 11.7355C22.0695 12.6785 21.8138 13.3046 20.9483 13.7513C20.8193 13.8177 20.476 13.9725 20.397 13.8482C20.347 13.9748 19.8927 13.9693 19.8314 13.8482L19.9095 13.8751L19.9107 20.0358C19.829 20.9835 19.0135 22.0383 17.9975 21.9609C17.9353 21.9742 17.87 21.9871 17.8024 22H14.3688C14.0651 21.9883 13.8375 21.746 13.8227 21.4419C13.8051 21.0832 13.7902 20.7252 13.7977 20.366C13.8626 19.1241 13.8715 17.8832 13.8242 16.6428C13.7461 16.0406 13.3794 15.8483 12.827 15.8006C12.323 15.7573 11.7171 15.762 11.2116 15.7999C10.687 15.8393 10.3336 15.9417 10.1627 16.5029L10.1541 21.4001C10.101 21.7429 9.98447 21.9695 9.60878 22H6.17519C6.10756 21.9871 6.04228 21.9742 5.98012 21.9609C4.96173 22.0383 4.14272 20.9769 4.06688 20.0268L4.06805 13.8959L4.14624 13.8482C4.0962 13.9748 3.64193 13.9693 3.58055 13.8482C3.57664 13.8794 3.55983 13.9256 3.53989 13.9224C2.75685 13.7899 2.00977 13.1209 2 12.2881V11.703L2.00039 11.7023Z" fill="#16A34A"/>
</svg>
