<svg width="24" height="24" viewBox="0 0 24 24" fill="none" xmlns="http://www.w3.org/2000/svg">
<path d="M21.5711 10.7453L13.2367 2.43047C12.671 1.92627 11.7 1.86447 11.0571 2.2478C8.08514 5.10169 5.16379 8.03615 2.28791 10.9874C1.52385 11.9473 2.3914 13.8108 3.59178 13.8108H4.15903L4.15746 20.0001C4.55027 22.7531 7.58884 21.8045 9.53876 21.9703C9.90609 21.9203 10.077 21.6844 10.1072 21.3273C10.2405 19.7689 9.99704 18.0322 10.115 16.4554C10.197 16.1265 10.4451 15.8487 10.7713 15.7439C11.0853 15.643 12.8827 15.6418 13.212 15.7283C13.628 15.8374 13.9051 16.1761 13.9416 16.6009C14.0733 18.1339 13.8404 19.8518 13.94 21.4043C13.9706 21.7169 14.2266 21.9621 14.5449 21.9719C16.4682 21.8014 19.4201 22.7421 19.8823 20.0721L19.887 13.8108H20.4542C20.5272 13.8108 20.842 13.6985 20.931 13.6618C21.4786 13.4341 21.8303 12.9632 22 12.4054V11.5464C21.9032 11.2546 21.7742 10.9796 21.5703 10.7453H21.5711ZM20.5264 12.554C19.9787 12.8388 19.0124 12.3021 18.7411 13.0758C18.6788 15.3516 18.7325 17.6395 18.7141 19.9195C18.6831 20.2281 18.4941 20.5278 18.2185 20.6744C18.1793 20.6952 17.9288 20.7984 17.9124 20.7984H15.1149V16.3674C15.1149 15.6989 14.3563 14.9072 13.7558 14.6784C13.0717 14.4183 10.9159 14.4249 10.2366 14.7011C9.66264 14.9342 8.93309 15.7216 8.93309 16.3674V20.7984H6.13561C6.12032 20.7984 5.89138 20.7065 5.85453 20.6885C5.58482 20.554 5.40331 20.2841 5.33667 19.995L5.33471 13.2428C5.2418 12.3929 4.3672 12.7019 3.78739 12.6393C3.17741 12.5736 2.98492 11.8621 3.41497 11.4474L11.4946 3.38568C11.8807 3.06767 12.1661 3.06728 12.5526 3.38568L20.6322 11.4474C20.9651 11.7654 20.9494 12.3338 20.5264 12.5536V12.554Z" fill="#717D85"/>
</svg>
