<svg width="8" height="11" viewBox="0 0 8 11" fill="none" xmlns="http://www.w3.org/2000/svg">
<path d="M4.08307 10.9999H3.91714C3.88725 10.9705 3.84424 10.974 3.80611 10.9534C3.62646 10.8577 2.99538 9.97418 2.82975 9.75077C2.2612 8.98322 1.69783 8.16923 1.21072 7.34354C0.19684 5.62486 -0.552283 4.00351 0.531139 2.06426C2.13462 -0.805894 6.20965 -0.652006 7.6048 2.33222C8.41279 4.06038 7.86407 5.41725 7.01246 6.95171C6.24046 8.34271 5.27264 9.6269 4.30177 10.8719L4.08307 11.0002V10.9999ZM3.93361 2.4504C1.94398 2.53098 2.05165 5.71871 4.09435 5.60495C6.13706 5.4912 5.9333 2.36919 3.93361 2.4504Z" fill="#111827"/>
</svg>
