<svg width="8" height="11" viewBox="0 0 8 11" fill="none" xmlns="http://www.w3.org/2000/svg">
<g clip-path="url(#clip0_94_1202)">
<path d="M4.08319 11.0003H3.91726C3.88737 10.9709 3.84436 10.9743 3.80623 10.9538C3.62658 10.8581 2.9955 9.97454 2.82987 9.75114C2.26132 8.98359 1.69795 8.1696 1.21084 7.34391C0.196962 5.62523 -0.552161 4.00387 0.531261 2.06463C2.13474 -0.805527 6.20977 -0.651639 7.60492 2.33259C8.41291 4.06075 7.86419 5.41762 7.01258 6.95208C6.24058 8.34308 5.27276 9.62727 4.30189 10.8723L4.08319 11.0006V11.0003ZM3.93373 2.45077C1.9441 2.53135 2.05177 5.71908 4.09448 5.60532C6.13718 5.49156 5.93343 2.36956 3.93373 2.45077Z" fill="white"/>
<path d="M3.84966 3.33082C4.86109 3.1684 4.96876 4.64535 4.07079 4.74204C3.18167 4.83779 3.05691 3.45817 3.84966 3.33082Z" fill="white"/>
</g>
<defs>
<clipPath id="clip0_94_1202">
<rect width="8" height="11" fill="white"/>
</clipPath>
</defs>
</svg>
