<svg width="24" height="24" viewBox="0 0 24 24" fill="none" xmlns="http://www.w3.org/2000/svg">
<path d="M4.5 19.3636C4.5 15.2968 7.79677 12 11.8635 12H12.1363C16.203 12 19.4998 15.2968 19.4998 19.3636C19.4998 20.2673 18.7672 20.9999 17.8635 20.9999H6.13635C5.23262 20.9999 4.5 20.2673 4.5 19.3636Z" fill="#16A34A"/>
<ellipse cx="11.9995" cy="6.74995" rx="4.49995" ry="4.49995" fill="#16A34A"/>
<path d="M19.5809 14.787C18.5602 13.1854 17.0153 11.93 15.2415 11.2507C15.23 11.1935 15.2326 11.1976 15.268 11.1648C15.5501 10.8994 15.8692 10.6891 16.1357 10.3794C19.0182 7.02425 16.8738 1.77501 12.499 1.36122C12.4584 1.35757 12.4152 1.36434 12.374 1.36122L12.3407 1.38932L12.2908 1.36122H11.7088L11.6589 1.38932L11.6256 1.36122H11.4595C7.10866 1.80781 4.99491 7.03935 7.86442 10.3794C8.13092 10.6896 8.44999 10.8994 8.7321 11.1648C8.76697 11.1976 8.77009 11.1935 8.75864 11.2507C7.11803 11.8795 5.66687 13.0038 4.6519 14.4383C2.92957 16.8726 1.57887 22.063 5.82667 22.6398L18.2911 22.6325C22.2526 21.9792 21.1215 17.2042 19.5814 14.787H19.5809ZM11.9509 2.9909C15.0156 2.94926 16.905 6.44442 15.1504 8.97821C13.6357 11.1653 10.393 11.1872 8.86586 9.00319C7.11803 6.50375 8.91167 3.03202 11.9509 2.9909ZM17.9236 21.0184H6.11711C4.39477 20.907 4.52594 19.4543 4.78775 18.1478C5.40454 15.0686 8.13457 12.566 11.2846 12.3021C15.0223 11.9888 18.4717 14.4544 19.2113 18.1478C19.4648 19.4147 19.609 20.8945 17.9231 21.0184H17.9236Z" fill="#16A34A"/>
</svg>
