<svg width="24" height="24" viewBox="0 0 24 24" fill="none" xmlns="http://www.w3.org/2000/svg">
<path d="M18.6599 14.6195C17.6959 13.1142 16.2368 11.9342 14.5615 11.2958C14.5507 11.242 14.5532 11.2459 14.5866 11.2151C14.853 10.9656 15.1544 10.768 15.4061 10.4769C18.1285 7.32353 16.1031 2.38996 11.9713 2.00104C11.933 1.99762 11.8922 2.00398 11.8534 2.00104L11.8219 2.02746L11.7747 2.00104H11.2251L11.1779 2.02746L11.1464 2.00104H10.9896C6.88045 2.42078 4.8841 7.33772 7.59423 10.4769C7.84592 10.7685 8.14727 10.9656 8.41371 11.2151C8.44665 11.2459 8.4496 11.242 8.43878 11.2958C6.88929 11.8868 5.51874 12.9435 4.56015 14.2917C2.93348 16.5797 1.6578 21.458 5.66966 22L17.4417 21.9932C21.1832 21.3792 20.115 16.8913 18.6604 14.6195H18.6599ZM11.4537 3.53273C14.3482 3.49359 16.1326 6.77856 14.4755 9.15999C13.045 11.2156 9.98237 11.2361 8.54005 9.18347C6.88929 6.83433 8.58331 3.57137 11.4537 3.53273ZM17.0947 20.4761H5.94397C4.3173 20.3715 4.44118 19.0061 4.68845 17.7782C5.27098 14.8841 7.84937 12.532 10.8245 12.284C14.3546 11.9895 17.6123 14.3068 18.3109 17.7782C18.5503 18.9689 18.6864 20.3597 17.0942 20.4761H17.0947Z" fill="#717D85" stroke="white" stroke-width="0.2"/>
</svg>
