<svg width="13" height="13" viewBox="0 0 13 13" fill="none" xmlns="http://www.w3.org/2000/svg">
<path d="M8.38581 0C9.069 0.101155 9.69095 0.536596 9.95095 1.18422C10.1386 1.65207 10.1074 2.16574 10.109 2.66085H10.6286C11.4797 2.66085 12.287 3.60404 12.3403 4.42079C12.4127 5.5331 12.283 6.72325 12.3403 7.84386C12.3419 8.60726 11.4406 9.57891 10.6796 9.57891H10.122C10.0857 9.60103 10.0869 9.62948 10.0829 9.66623C9.99204 10.4399 10.1876 11.4305 10.0782 12.1955C10.0185 12.6128 9.58031 12.9719 9.16028 12.9755L3.12852 12.9739C2.69229 12.9585 2.2284 12.5148 2.2284 12.0746V9.57851H1.6835C0.922469 9.57851 0.0211619 8.60687 0.0227424 7.84346C0.0800373 6.72286 -0.0499627 5.53271 0.0227424 4.4204C0.0760859 3.60365 0.88335 2.66046 1.73448 2.66046H2.22879C2.23314 2.18313 2.19086 1.69 2.36156 1.2348C2.60299 0.587568 3.25733 0.0675684 3.9508 0H8.38542H8.38581ZM9.37405 2.66085V1.88796C9.37405 1.32884 8.85721 0.774863 8.29809 0.734164L3.94447 0.741277C3.49758 0.799362 2.96296 1.32924 2.96296 1.78681V2.66125H9.37444L9.37405 2.66085ZM10.109 8.86924H10.4765C11.1506 8.86924 11.5876 8.2548 11.6291 7.63997C11.7002 6.58851 11.5991 5.43076 11.601 4.37416C11.5058 3.85298 11.0818 3.45666 10.5535 3.39462H1.83405C1.3101 3.43888 0.88177 3.82413 0.769551 4.33188C0.757697 5.39796 0.661283 6.57784 0.733198 7.63997C0.791283 8.49505 1.39229 8.92891 2.228 8.86924V8.00745H1.60724C1.59973 8.00745 1.49858 7.94541 1.4804 7.93158C1.25952 7.75772 1.30496 7.43884 1.55074 7.31793H10.7104C10.925 7.40565 11.006 7.65657 10.8807 7.85453C10.8562 7.89325 10.7124 8.00745 10.6792 8.00745H10.109V8.86924ZM9.37405 8.00784H2.96256V12.075C2.96256 12.1923 3.17396 12.2749 3.27827 12.2658H9.03265C9.15317 12.2884 9.37365 12.1781 9.37365 12.0497V8.00784H9.37405Z" fill="#172BFF"/>
</svg>
