<svg width="95" height="95" viewBox="0 0 95 95" fill="none" xmlns="http://www.w3.org/2000/svg">
<g clip-path="url(#clip0_93_791)">
<path d="M78.5767 20.8727H82.4065C83.1216 20.8727 84.464 22.2376 84.6209 23.0057C84.7965 23.8754 84.7934 27.5986 84.6522 28.5095C84.5393 29.2554 83.9967 29.7728 83.5419 30.3061L89.0842 44.1164C89.8432 48.3951 87.5191 52.8959 83.1122 53.6768L83.0902 61.4056C88.7705 61.7357 93.6792 66.5698 94.7833 72.1245C96.2387 79.4407 89.9028 86.4617 86.0355 92.0037H93.7922C93.8674 92.0037 94.454 92.6798 94.5261 92.848C95.0186 93.9938 94.1968 95.0254 93.0143 94.9937H1.89421C0.752503 95.0698 -0.241785 94.1874 0.115782 92.9908C0.178513 92.7813 0.815234 92.0037 0.91874 92.0037H4.55087V53.0578C1.42373 51.9754 -0.251195 48.23 0.0279585 45.002L4.1588 30.6806C4.1839 30.1124 3.48444 29.7062 3.19902 29.0904C2.49329 27.5732 2.50897 23.3421 3.57227 21.9614C3.85142 21.5964 4.83316 20.8664 5.24091 20.8664H10.6421V5.27531C10.6389 3.05981 14.5471 -0.196793 16.8274 0.0126963L72.0088 0C75.3116 0.231707 77.6765 2.07584 78.5297 5.32292L78.5767 20.8727ZM22.3696 5.22452C20.0204 5.59906 18.1353 8.18911 19.1798 10.5443C20.4626 13.4359 26.2182 13.0105 26.7044 14.6579C27.407 17.0511 23.7936 17.0511 22.3446 16.8797C21.0586 16.7242 19.1515 15.2292 18.7344 17.1686C19.9827 19.3079 24.2579 19.3872 26.3468 18.5874C29.4677 17.3907 29.8754 13.3851 26.8769 11.8996C25.5564 11.2426 21.5636 10.9029 21.137 9.56031C20.3779 7.16071 23.9567 7.00518 25.4435 7.1861C26.3029 7.29085 28.602 8.50334 28.3197 6.48146C28.1158 5.02138 23.4769 5.04995 22.3728 5.2277L22.3696 5.22452ZM34.5928 8.75409L34.505 7.15436C34.298 6.87504 34.069 6.95757 33.8024 7.04644C33.2943 7.21467 30.8133 9.73806 30.8509 10.2364L31.1896 10.7061L32.438 10.7347C32.6826 12.6804 31.9706 15.937 32.7516 17.6669C33.6393 19.6316 37.7952 19.3968 37.5474 17.6002C37.3404 16.0957 35.2044 17.7494 34.6932 16.6956L34.5959 10.7315C38.4319 11.3791 38.3692 8.13515 34.5959 8.74775L34.5928 8.75409ZM44.5765 8.60174C38.2249 8.93502 38.4131 19.0984 44.9027 19.0984C51.3922 19.0984 51.5867 8.23355 44.5765 8.60174ZM59.0924 10.4935C59.3183 10.265 59.3967 9.60474 59.3057 9.29051C58.3616 7.79235 56.7494 9.04928 55.7018 9.73806C54.9491 8.34781 53.5878 8.25259 53.4372 10.0364C53.2741 11.9916 53.2647 15.6577 53.4372 17.6034C53.5219 18.5747 53.9014 19.3301 55.0181 18.7873C56.2915 18.1684 55.1404 13.2105 55.7081 11.9345C56.2413 10.7315 58.7411 10.849 59.0956 10.4935H59.0924ZM63.4585 14.7118H69.6438C70.1864 14.7118 70.5032 13.9247 70.5409 13.4295C70.958 7.69078 61.8997 6.48146 61.3006 13.2232C60.9148 17.5844 64.3524 19.949 68.361 18.781C69.0855 18.5683 70.6789 17.9208 70.2366 16.9083C69.7034 15.6863 68.4802 16.7655 67.6615 16.8829C65.7419 17.159 63.9447 16.848 63.4585 14.715V14.7118ZM81.7196 23.8532H6.02505L5.73022 24.1515V27.5287L6.02505 27.8271H81.7164V23.8532H81.7196ZM25.9547 30.8076H18.1008L15.7452 43.1261H24.7785L25.9579 30.8076H25.9547ZM47.9451 30.8076H39.8936V43.1261H49.1213L47.942 30.8076H47.9451ZM69.7411 30.8076H61.8871L64.2427 43.1261H73.2759L69.7411 30.8076ZM24.5809 46.1066H15.3532C15.4379 52.442 24.6311 52.4579 24.5809 46.1066ZM40.1916 46.1066C39.605 46.8208 40.4456 48.4205 40.9726 49.0902C43.0364 51.712 47.2582 51.4041 48.7732 48.43C48.9457 48.0936 49.6859 46.1034 49.0272 46.1034H40.1916V46.1066ZM73.8656 46.1066H64.6379C64.6818 52.4452 73.7935 52.4643 73.8656 46.1066ZM7.49923 53.8577V91.7085L7.79407 92.0069H13.3897V62.8974C13.3897 62.8086 13.8978 61.7135 14.0107 61.5389C14.6412 60.555 15.7107 59.9805 16.8493 59.8408C23.1977 59.06 30.9544 60.3867 37.4533 59.8122C39.0687 59.7424 41.2737 61.6976 41.2737 63.2974V92.01H77.0085L71.5728 84.497L51.4079 84.4367C49.4099 84.1923 47.9232 82.6116 47.7444 80.5929C47.2739 75.2827 48.1114 69.2773 47.7507 63.8941C48.0392 61.8278 49.3033 60.4343 51.3859 60.2217C58.048 60.6534 65.4283 59.6377 72.0088 60.2122C73.6868 60.3582 74.8129 61.1009 75.5499 62.6149L79.9662 61.3231L80.123 53.9878C79.1884 53.3816 78.2035 53.1943 77.2562 52.515C76.5976 52.0453 76.1239 51.4073 75.506 50.8931C74.2169 51.858 73.2759 53.0292 71.6638 53.5212C68.3421 54.5337 65.3781 53.4197 63.1355 50.8931C62.8532 50.8423 61.7428 52.15 61.3602 52.4325C57.9884 54.9464 53.18 54.0862 50.79 50.6836C47.7789 54.8829 41.8069 54.9178 38.5888 50.8931C37.56 51.5914 36.8699 52.5341 35.7063 53.1022C33.4291 54.21 30.7693 54.1179 28.5706 52.8991C27.545 52.3309 27.0243 51.493 26.0771 50.8931C22.9154 54.8861 16.8117 54.921 13.8759 50.6836C12.4519 52.6991 9.9677 53.9815 7.49296 53.8577H7.49923ZM80.3018 64.2432C75.2363 64.8209 70.8671 69.5947 70.9235 74.8161C70.9643 78.6027 77.5134 88.4646 80.2454 91.2133C81.5314 92.5084 81.9893 92.0799 83.0902 90.9054C85.841 87.9694 92.1894 78.5583 92.1455 74.6193C92.0765 68.3918 86.3334 63.5545 80.305 64.2432H80.3018ZM18.8285 75.5556C18.6528 75.6096 18.1792 76.0444 18.0914 76.2C17.8342 76.6634 17.7903 79.7486 17.9095 80.3771C18.1761 81.7832 20.4501 81.9641 20.8076 80.339C20.9707 79.6089 20.9394 76.857 20.6257 76.2349C20.2776 75.5461 19.553 75.3335 18.8253 75.5556H18.8285Z" fill="#16A34A"/>
<path d="M80.6942 67.2237C89.8466 66.2207 90.8723 79.8248 82.5824 80.8564C73.2511 82.0181 72.0341 68.1728 80.6942 67.2237Z" fill="#16A34A"/>
<path d="M68.3675 12.7249H63.4588C63.9826 9.8238 68.057 9.71588 68.3675 12.7249Z" fill="#16A34A"/>
<path d="M44.9029 10.649C48.8581 10.649 48.6386 17.0607 44.9029 17.0607C41.1893 17.0607 40.9728 10.649 44.9029 10.649Z" fill="#16A34A"/>
</g>
<defs>
<clipPath id="clip0_93_791">
<rect width="95" height="95" fill="white"/>
</clipPath>
</defs>
</svg>
