<svg width="24" height="24" viewBox="0 0 24 24" fill="none" xmlns="http://www.w3.org/2000/svg">
<path d="M5.12523 2.79834H18.875L21.7057 7.84001H2.375L5.12523 2.79834Z" fill="#16A34A"/>
<path d="M6.95835 8.75669C6.95835 9.51609 5.47401 11.0484 4.20835 11.0484C2.9427 11.0484 1.91669 9.51609 1.91669 8.7567C1.91669 7.99731 2.9427 8.2984 4.20835 8.2984C5.47401 8.2984 6.95835 7.9973 6.95835 8.75669Z" fill="#16A34A"/>
<path d="M11.5417 8.81553C11.5417 9.57492 10.0573 11.1072 8.79167 11.1072C7.52601 11.1072 6.5 9.57493 6.5 8.81554C6.5 8.05614 7.52601 8.35723 8.79167 8.35723C10.0573 8.35723 11.5417 8.05614 11.5417 8.81553Z" fill="#16A34A"/>
<path d="M12.9167 13.3401H17.5V17.0827H12.9167V13.3401Z" fill="#16A34A"/>
<path d="M17.0417 8.81553C17.0417 9.57492 15.5573 11.1072 14.2917 11.1072C13.026 11.1072 12 9.57493 12 8.81554C12 8.05614 13.026 8.35723 14.2917 8.35723C15.5573 8.35723 17.0417 8.05614 17.0417 8.81553Z" fill="#16A34A"/>
<path d="M22.5417 8.81553C22.5417 9.57492 21.0573 11.1072 19.7917 11.1072C18.526 11.1072 17.5 9.57493 17.5 8.81554C17.5 8.05614 18.526 8.35723 19.7917 8.35723C21.0573 8.35723 22.5417 8.05614 22.5417 8.81553Z" fill="#16A34A"/>
<path d="M6.5 13.8818C6.5 13.3296 6.94772 12.8818 7.5 12.8818H9.16667C9.71895 12.8818 10.1667 13.3296 10.1667 13.8818V20.2152H6.5V13.8818Z" fill="#16A34A"/>
<path d="M22.9995 8.57733L22.9709 8.52569L22.9995 8.49146V8.57733Z" fill="#757575"/>
<path d="M22.9994 8.14863L22.9209 7.83599L19.7653 2.26071C19.5357 1.94807 19.3628 1.90934 18.9924 1.88184H4.95007C4.72444 1.90148 4.48645 1.9621 4.33602 2.14564L1.07438 7.87696C0.728622 9.2712 1.6351 10.6436 2.8256 11.2329L2.83289 20.6637C2.86489 21.0734 3.19941 21.2626 3.57772 21.28H20.4523C20.9182 21.2334 21.2617 21.0308 21.1663 20.4639C21.2044 17.379 21.214 14.2942 21.196 11.2105C22.1592 10.7423 22.9147 9.87178 23 8.7492V8.57745C22.9876 8.54489 22.982 8.52244 23 8.49157V8.14806L22.9994 8.14863ZM5.16954 3.08243L18.8509 3.09366L21.4121 7.54805H2.61792L5.16898 3.08243H5.16954ZM16.649 8.62067C16.2713 10.8916 12.9608 10.9029 12.6156 8.62067H16.649ZM11.4144 8.62067C11.0765 10.9068 7.76101 10.886 7.38101 8.62067H11.4144ZM2.14644 8.62067H6.22251C5.79201 10.8978 2.57358 10.904 2.14644 8.62067ZM10.0842 20.0771H6.99485V14.0915C6.99485 13.8547 7.40178 13.56 7.62742 13.5224C7.92771 13.4719 9.28042 13.4764 9.5504 13.5533C9.76369 13.6139 10.0847 13.9131 10.0847 14.1348V20.0777L10.0842 20.0771ZM20.0392 20.0771H11.1574V14.0915C11.1574 13.528 10.6 12.8399 10.0999 12.617C9.5257 12.3611 7.61002 12.3487 7.02797 12.5794C6.38192 12.8354 5.87957 13.6122 5.87957 14.306V20.0771H3.99139V11.4097H4.6133C4.74071 11.4097 5.14877 11.2801 5.28965 11.2279C5.90595 10.9988 6.42009 10.5627 6.80176 10.0374C7.80254 11.5585 9.9781 11.8784 11.3914 10.7216C11.5132 10.6222 11.955 10.089 11.9982 10.0811C12.0498 10.0716 12.4865 10.5863 12.5954 10.6784C14.0171 11.8823 16.1983 11.5826 17.2283 10.0368C17.6099 10.5616 18.1241 10.9983 18.7404 11.2273C18.8813 11.2795 19.2893 11.4092 19.4167 11.4092H20.0386V20.0766L20.0392 20.0771ZM17.8075 8.66333H21.8836C21.4026 10.886 18.3014 10.8928 17.8075 8.66333Z" fill="#16A34A"/>
<path d="M18.1045 13.6659C18.0731 13.4251 17.876 13.0557 17.7065 12.8834C17.4265 12.5988 17.0678 12.4647 16.6726 12.4372C15.8296 12.3783 14.3719 12.3653 13.539 12.44C12.857 12.5012 12.2486 13.049 12.1846 13.7461C12.129 14.3506 12.1133 15.8639 12.1902 16.4476C12.2716 17.0689 12.8733 17.619 13.4935 17.6757C14.5555 17.7728 15.7645 17.5994 16.8427 17.674C17.4944 17.5702 18.0489 17.037 18.1101 16.3668C18.1657 15.7623 18.1814 14.249 18.1045 13.6653V13.6659ZM17.0364 16.2377C17.0083 16.4762 16.8545 16.5829 16.63 16.6036C15.6769 16.6912 14.5914 16.5335 13.6232 16.6025C13.4194 16.5851 13.2813 16.4336 13.2583 16.2377C13.2005 15.7499 13.2011 14.3641 13.2583 13.8758C13.2813 13.6788 13.3998 13.5603 13.5912 13.5222C14.5425 13.5878 15.7016 13.3992 16.6283 13.5109C16.8837 13.5418 17.0145 13.6687 17.0369 13.9173C17.0857 14.4539 17.097 15.7134 17.0358 16.2371L17.0364 16.2377Z" fill="#16A34A"/>
</svg>
