<svg width="24" height="24" viewBox="0 0 24 24" fill="none" xmlns="http://www.w3.org/2000/svg">
<path d="M22.9996 8.6955L22.9709 8.64386L22.9996 8.60962V8.6955Z" fill="#717D85"/>
<path d="M22.9994 8.26679L22.9209 7.95415L19.7653 2.37887C19.5357 2.06623 19.3628 2.0275 18.9924 2H4.95007C4.72444 2.01965 4.48645 2.08026 4.33602 2.26381L1.07438 7.99513C0.728622 9.38937 1.6351 10.7617 2.8256 11.3511L2.83289 20.7818C2.86489 21.1916 3.19941 21.3807 3.57772 21.3981H20.4523C20.9182 21.3516 21.2617 21.1489 21.1663 20.582C21.2044 17.4972 21.214 14.4123 21.196 11.3286C22.1592 10.8605 22.9147 9.98994 23 8.86737V8.69561C22.9877 8.66306 22.982 8.64061 23 8.60974V8.26623L22.9994 8.26679ZM5.16954 3.2006L18.851 3.21182L21.4121 7.66621H2.61792L5.16898 3.2006H5.16954ZM16.649 8.73883C16.2713 11.0098 12.9608 11.021 12.6156 8.73883H16.649ZM11.4144 8.73883C11.0765 11.025 7.76101 11.0042 7.38102 8.73883H11.4144ZM2.14644 8.73883H6.22251C5.79201 11.016 2.57358 11.0222 2.14644 8.73883ZM10.0842 20.1953H6.99485V14.2097C6.99485 13.9728 7.40178 13.6782 7.62742 13.6406C7.92771 13.5901 9.28042 13.5945 9.5504 13.6714C9.76369 13.7321 10.0847 14.0312 10.0847 14.2529V20.1959L10.0842 20.1953ZM20.0392 20.1953H11.1574V14.2097C11.1574 13.6462 10.6 12.958 10.0999 12.7352C9.5257 12.4793 7.61002 12.4669 7.02797 12.6976C6.38192 12.9536 5.87957 13.7304 5.87957 14.4241V20.1953H3.99139V11.5279H4.6133C4.74071 11.5279 5.14877 11.3982 5.28965 11.346C5.90595 11.117 6.42009 10.6809 6.80177 10.1555C7.80254 11.6766 9.9781 11.9966 11.3914 10.8397C11.5132 10.7404 11.955 10.2072 11.9982 10.1993C12.0498 10.1898 12.4865 10.7045 12.5954 10.7965C14.0171 12.0005 16.1983 11.7008 17.2283 10.155C17.6099 10.6798 18.1241 11.1165 18.7404 11.3455C18.8813 11.3977 19.2893 11.5273 19.4167 11.5273H20.0386V20.1947L20.0392 20.1953ZM17.8075 8.78149H21.8836C21.4026 11.0042 18.3015 11.0109 17.8075 8.78149Z" fill="#717D85"/>
<path d="M18.1045 13.784C18.0731 13.5432 17.8761 13.1739 17.7066 13.0016C17.4265 12.717 17.0678 12.5829 16.6727 12.5554C15.8296 12.4964 14.372 12.4835 13.539 12.5582C12.8571 12.6193 12.2486 13.1672 12.1846 13.8643C12.1291 14.4688 12.1134 15.982 12.1902 16.5658C12.2716 17.1871 12.8733 17.7372 13.4936 17.7939C14.5555 17.891 15.7645 17.7175 16.8428 17.7922C17.4944 17.6883 18.049 17.1551 18.1102 16.4849C18.1657 15.8804 18.1814 14.3672 18.1045 13.7835V13.784ZM17.0364 16.3558C17.0084 16.5944 16.8546 16.701 16.63 16.7218C15.677 16.8094 14.5914 16.6516 13.6232 16.7207C13.4195 16.7033 13.2814 16.5517 13.2584 16.3558C13.2006 15.8681 13.2011 14.4823 13.2584 13.9939C13.2814 13.7969 13.3998 13.6785 13.5912 13.6403C14.5426 13.706 15.7017 13.5174 16.6284 13.6291C16.8837 13.66 17.0145 13.7868 17.037 14.0355C17.0858 14.5721 17.097 15.8316 17.0359 16.3553L17.0364 16.3558Z" fill="#717D85"/>
</svg>
