<svg width="12" height="12" viewBox="0 0 12 12" fill="none" xmlns="http://www.w3.org/2000/svg">
<path d="M11.2467 10.6277L8.5085 7.8896C9.205 7.05485 9.625 5.98208 9.625 4.8125C9.625 2.15892 7.46608 0 4.8125 0C2.15892 0 0 2.15892 0 4.8125C0 7.46608 2.15892 9.625 4.8125 9.625C5.98208 9.625 7.05483 9.20503 7.88958 8.50853L10.6277 11.2467C10.7129 11.3318 10.8249 11.375 10.9369 11.375C11.0489 11.375 11.1609 11.3324 11.2461 11.2467C11.4176 11.0758 11.4176 10.7987 11.2467 10.6277ZM0.875 4.8125C0.875 2.64133 2.64133 0.875 4.8125 0.875C6.98367 0.875 8.75 2.64133 8.75 4.8125C8.75 6.98367 6.98367 8.75 4.8125 8.75C2.64133 8.75 0.875 6.98367 0.875 4.8125Z" fill="#16A34A"/>
</svg>
