<svg width="19" height="22" viewBox="0 0 19 22" fill="none" xmlns="http://www.w3.org/2000/svg">
<g clip-path="url(#clip0_97_2302)">
<path d="M14.1242 4.32493C13.6576 4.32211 13.1885 4.32606 12.7213 4.32493C12.5543 0.263175 6.43521 0.264305 6.26821 4.32493C5.80157 4.32606 5.33248 4.32211 4.86523 4.32493C5.08996 -1.44781 13.9075 -1.43482 14.1236 4.32493H14.1242Z" fill="#16A34A"/>
<path d="M4.86529 4.32501C4.82661 5.31433 4.88432 6.31325 4.87634 7.3037C5.05378 8.02819 6.06933 8.01859 6.26519 7.31104C6.30142 6.31777 6.22712 5.31715 6.26826 4.32501C8.41846 4.31879 10.5711 4.31879 12.7213 4.32501C12.7625 5.31715 12.6882 6.31777 12.7244 7.31104C12.9196 8.01859 13.9358 8.02819 14.1132 7.3037C14.1065 6.31325 14.1617 5.31433 14.1243 4.32501C16.1345 4.33686 17.6959 3.8823 17.9581 6.19636C18.4075 10.1537 18.5217 14.1516 18.9865 18.1089C19.1627 19.9887 17.5713 21.7991 15.5267 22.0007H3.46293C1.29615 21.6613 -0.0705976 20.1412 0.00308151 18.1083C0.46726 14.151 0.578393 10.1525 1.03152 6.1958C1.29676 3.88173 2.85323 4.33686 4.8659 4.32501H4.86529ZM6.33089 12.6829C6.04907 12.942 6.09634 13.3136 6.31492 13.5926C6.53351 13.8715 7.74921 14.9772 8.04884 15.1804C8.46881 15.465 8.77704 15.3623 9.14482 15.0777C10.3433 14.1499 11.4135 12.8551 12.6047 11.8946C13.2358 11.3259 12.5666 10.4168 11.7795 10.8347L8.53635 13.7857C8.01384 13.4282 7.08242 11.9917 6.33089 12.6829Z" fill="#16A34A"/>
</g>
<defs>
<clipPath id="clip0_97_2302">
<rect width="19" height="22" fill="white"/>
</clipPath>
</defs>
</svg>
