<svg width="14" height="12" viewBox="0 0 14 12" fill="none" xmlns="http://www.w3.org/2000/svg">
<path d="M13.9598 0.148491C14.0337 0.268642 14.0035 0.419062 13.8875 0.508027C12.9419 1.23327 8.79449 4.64524 4.23539 11.922C4.16897 12.0282 3.99871 12.0253 3.93686 11.9172C3.49699 11.1486 2.13852 8.80626 1.10126 7.34933C0.884983 7.04564 0.50536 6.87869 0.117176 6.90345C0.02921 6.90906 -0.0290415 6.82218 0.0150978 6.75324L0.0172073 6.74996C0.0878537 6.63998 0.202522 6.49334 0.378454 6.34515C1.07827 5.75601 2.16432 5.77117 2.85988 6.36464C3.23872 6.68766 3.68937 7.15604 4.10598 7.80486C4.10598 7.80486 8.98277 1.27703 13.5884 0.0124159C13.7322 -0.0269986 13.8869 0.0298594 13.9598 0.148491Z" fill="#16A34A"/>
</svg>
