<svg width="12" height="12" viewBox="0 0 12 12" fill="none" xmlns="http://www.w3.org/2000/svg">
<g clip-path="url(#clip0_68_1493)">
<path d="M6.67868 2.30561V8.70255C6.67868 9.03747 6.34081 9.33766 6.01373 9.34287C5.68665 9.34808 5.32164 9.05797 5.32164 8.72861V2.30561L3.07558 4.53196C2.4336 4.94784 1.72759 4.27347 2.11174 3.62168L5.60801 0.129284C5.9511 -0.100717 6.24965 3.85731e-05 6.53567 0.246369C7.65226 1.20737 8.64951 2.4762 9.75845 3.46464C10.3969 4.10913 9.62483 5.04269 8.88403 4.49409L6.67833 2.30595L6.67868 2.30561Z" fill="white"/>
<path d="M1.32885 10.67H10.6715V8.59864C10.6715 8.50761 10.7668 8.3332 10.8274 8.2592C11.1886 7.819 11.8636 7.98472 11.9962 8.52672L12 11.4629C11.945 11.7558 11.6952 11.9927 11.39 12.0004L0.472874 11.9809C0.228956 11.9156 0.0459304 11.7092 0 11.4629L0.00382753 8.52672C0.133616 7.98611 0.820135 7.81657 1.17262 8.2592C1.23316 8.33494 1.3285 8.50553 1.3285 8.59864V10.67H1.32885Z" fill="white"/>
</g>
<defs>
<clipPath id="clip0_68_1493">
<rect width="12" height="12" fill="white"/>
</clipPath>
</defs>
</svg>
