<svg width="25" height="24" viewBox="0 0 25 24" fill="none" xmlns="http://www.w3.org/2000/svg">
<path d="M18.8499 11.9999C18.8499 15.645 15.895 18.5999 12.2499 18.5999C8.60482 18.5999 5.6499 15.645 5.6499 11.9999C5.6499 8.35482 8.60482 5.3999 12.2499 5.3999C15.895 5.3999 18.8499 8.35482 18.8499 11.9999Z" stroke="#C8A683" style="stroke:#C8A683;stroke:color(display-p3 0.7843 0.6510 0.5137);stroke-opacity:1;" stroke-width="2"/>
<path d="M12.2705 23.5997C11.6895 23.5997 11.2141 23.1665 11.2141 22.5855V22.5009C11.2141 21.9199 11.6895 21.4445 12.2705 21.4445C12.8516 21.4445 13.327 21.9199 13.327 22.5009C13.327 23.082 12.8516 23.5997 12.2705 23.5997ZM19.8137 20.6204C19.539 20.6204 19.2749 20.5148 19.0636 20.3141L18.9263 20.1767C18.5143 19.7647 18.5143 19.0991 18.9263 18.6871C19.3383 18.2751 20.0039 18.2751 20.4159 18.6871L20.5532 18.8244C20.9653 19.2365 20.9653 19.902 20.5532 20.3141C20.3525 20.5148 20.0884 20.6204 19.8137 20.6204ZM4.72737 20.6204C4.45269 20.6204 4.18858 20.5148 3.97728 20.3141C3.56526 19.902 3.56526 19.2365 3.97728 18.8244L4.11462 18.6871C4.52665 18.2751 5.19222 18.2751 5.60424 18.6871C6.01626 19.0991 6.01626 19.7647 5.60424 20.1767L5.4669 20.3141C5.26617 20.5148 4.99149 20.6204 4.72737 20.6204ZM22.8352 13.0773H22.7507C22.1696 13.0773 21.6942 12.6018 21.6942 12.0208C21.6942 11.4397 22.1696 10.9643 22.7507 10.9643C23.3317 10.9643 23.8494 11.4397 23.8494 12.0208C23.8494 12.6018 23.4163 13.0773 22.8352 13.0773ZM1.7904 13.0773H1.70588C1.12482 13.0773 0.649414 12.6018 0.649414 12.0208C0.649414 11.4397 1.12482 10.9643 1.70588 10.9643C2.28694 10.9643 2.80461 11.4397 2.80461 12.0208C2.80461 12.6018 2.37145 13.0773 1.7904 13.0773ZM19.6764 5.67143C19.4017 5.67143 19.1376 5.56578 18.9263 5.36505C18.5143 4.95303 18.5143 4.28745 18.9263 3.87543L19.0636 3.73809C19.4756 3.32607 20.1412 3.32607 20.5532 3.73809C20.9653 4.15011 20.9653 4.81569 20.5532 5.22771L20.4159 5.36505C20.2152 5.56578 19.9511 5.67143 19.6764 5.67143ZM4.86472 5.67143C4.59003 5.67143 4.32592 5.56578 4.11462 5.36505L3.97728 5.21714C3.56526 4.80512 3.56526 4.13955 3.97728 3.72753C4.38931 3.31551 5.05488 3.31551 5.4669 3.72753L5.60424 3.86487C6.01626 4.27689 6.01626 4.94246 5.60424 5.35449C5.40351 5.56578 5.12883 5.67143 4.86472 5.67143ZM12.2705 2.55485C11.6895 2.55485 11.2141 2.1217 11.2141 1.54064V1.45612C11.2141 0.875068 11.6895 0.399658 12.2705 0.399658C12.8516 0.399658 13.327 0.875068 13.327 1.45612C13.327 2.03718 12.8516 2.55485 12.2705 2.55485Z" fill="#C8A683" style="fill:#C8A683;fill:color(display-p3 0.7843 0.6510 0.5137);fill-opacity:1;"/>
</svg>
